<svg width="1140" height="418" fill="none" xmlns="http://www.w3.org/2000/svg"><mask id="mask0" maskUnits="userSpaceOnUse" x="0" y="0" width="1140" height="418"><rect width="1140" height="418" rx="3" fill="#1E1F24"/></mask><g opacity=".2" stroke="#5D6886" stroke-miterlimit="10" mask="url(#mask0)"><path d="M563.039-439.729s-55.827 162.586 102.85 301.703c177.822 155.979 115.364 346.003-11.454 380.61-126.819 34.607-316.695-142.283-435.802 11.365-119.108 153.647-391.977-24.302-391.977-24.302"/><path d="M391.875-372.557S461.884-195.676 597.32-77.799c135.435 117.877 70.905 202.773 25.93 214.773C529.936 161.948 364.395-.005 249.946 81.252c-85.969 61.17-132.33 221.385-322.638 119.15"/><path d="M392.478-266.574s138.636 121.494 39.803 165.361C318.897-50.92 262.235-117.972 205.194 43.242c-20.267 57.516-174.92 205.924-250.55 55.363m553.554-53.959c30.109 34.028 69.538 48.321 88.068 31.926 18.529-16.396 9.141-57.272-20.968-91.3-30.109-34.027-69.539-48.32-88.068-31.925-18.529 16.395-9.142 57.271 20.968 91.3z"/></g></svg>