<svg width="105" height="106" fill="none" xmlns="http://www.w3.org/2000/svg"><path fill-rule="evenodd" clip-rule="evenodd" d="M20 18.301C20 15.373 22.395 13 25.35 13h54.3c2.955 0 5.35 2.373 5.35 5.301v25.75a2.03 2.03 0 0 0-.401-.039c-1.108 0-2.006.89-2.006 1.988A1.997 1.997 0 0 0 85 47.948v25.75C85 76.628 82.605 79 79.65 79h-54.3C22.395 79 20 76.627 20 73.699v-25.75c.13.025.264.039.401.039 1.108 0 2.006-.89 2.006-1.988a1.997 1.997 0 0 0-2.006-1.988 2.03 2.03 0 0 0-.401.04v-25.75z" fill="url(#paint0_radial)" filter="url(#filter0_d)"/><defs><filter id="filter0_d" x="0" y="0" width="105" height="106" filterUnits="userSpaceOnUse" color-interpolation-filters="sRGB"><feFlood flood-opacity="0" result="BackgroundImageFix"/><feColorMatrix in="SourceAlpha" values="0 0 0 0 0 0 0 0 0 0 0 0 0 0 0 0 0 0 127 0"/><feOffset dy="7"/><feGaussianBlur stdDeviation="10"/><feColorMatrix values="0 0 0 0 0 0 0 0 0 0 0 0 0 0 0 0 0 0 0.25 0"/><feBlend in2="BackgroundImageFix" result="effect1_dropShadow"/><feBlend in="SourceGraphic" in2="effect1_dropShadow" result="shape"/></filter><radialGradient id="paint0_radial" cx="0" cy="0" r="1" gradientUnits="userSpaceOnUse" gradientTransform="matrix(-11.90369 51.02395 -50.20397 -11.7124 64.403 27.976)"><stop stop-color="#2F3342"/><stop offset="1" stop-color="#1D1F24"/></radialGradient></defs></svg>