<svg width="60" height="60" fill="none" xmlns="http://www.w3.org/2000/svg"><circle cx="30" cy="30" r="30" fill="#F7931A"/><path d="M39.969 30.912a5.704 5.704 0 0 0 4.037-5.143c.319-3.667-3.629-5.954-6.916-6.98l1.189-5.355-3.303-.733-1.178 5.308-2.217-.492 1.178-5.308-3.302-.733-1.178 5.308-6.652-1.477-.76 3.42 2.477.55c1.11.246 1.578.697 1.38 1.593l-3.262 14.696c-.272 1.226-.97 1.468-1.63 1.321l-2.524-.56-.774 3.491 6.416 1.424-1.204 5.425 3.325.739 1.204-5.426 2.218.492-1.204 5.426 3.231.717 1.204-5.425.708.157c6.793 1.507 9.796-1.316 10.801-5.845a6.016 6.016 0 0 0-3.264-6.59zm-9.194-9.763l2.359.524c1.65.366 4.843 1.372 4.246 4.06a3.408 3.408 0 0 1-3.681 2.871l-4.364-.968 1.44-6.487zm-.113 17.795l.005-.023-3.656-.812 1.57-7.076 4.246.942c.991.22 4.645 1.377 4.058 4.02-.586 2.641-2.685 3.734-6.223 2.95z" fill="#fff"/></svg>