<svg width="12" height="12" fill="none" xmlns="http://www.w3.org/2000/svg"><g clip-path="url(#clip0)" fill="#ABB3C6"><path d="M.5 12h9a.5.5 0 0 0 .5-.5V8a.5.5 0 1 0-1 0v3H1V1h8v3a.5.5 0 1 0 1 0V.5a.5.5 0 0 0-.5-.5h-9a.5.5 0 0 0-.5.5v11a.5.5 0 0 0 .5.5z"/><path d="M7.354 4.354a.5.5 0 0 0-.708-.708l-2 2a.506.506 0 0 0-.033.037l-.013.018-.016.021-.013.022-.012.02-.01.023c-.004.007-.008.014-.01.022l-.01.022-.007.024c-.003.007-.004.015-.006.023l-.006.024-.004.027-.004.022a.504.504 0 0 0 0 .098l.004.022c0 .01.002.018.004.027l.006.024c.002.008.003.016.006.023l.008.024.008.022.01.022.011.023.012.02.013.022.016.021.013.018c.01.013.022.025.033.036l2 2a.5.5 0 0 0 .708-.707L6.207 6.5H11.5a.5.5 0 1 0 0-1H6.207l1.147-1.146z"/></g><defs><clipPath id="clip0"><path transform="rotate(-180 12 12)" fill="#fff" d="M12 12h12v12H12z"/></clipPath></defs></svg>