<svg width="55" height="57" fill="none" xmlns="http://www.w3.org/2000/svg"><path fill-rule="evenodd" clip-rule="evenodd" d="M0 4.486C0 2.008 2.027 0 4.527 0h45.946C52.973 0 55 2.008 55 4.486v21.789a1.69 1.69 0 0 0-2.037 1.649A1.69 1.69 0 0 0 55 29.571v15.136a8 8 0 1 0-11.461 11.138H4.527C2.027 55.845 0 53.837 0 51.36V29.57a1.69 1.69 0 0 0 2.037-1.648A1.69 1.69 0 0 0 0 26.275V4.485zm31.618 30.272c.833-1.216 1.25-3.09 1.25-5.622 0-2.446-.43-4.303-1.29-5.573-.852-1.269-2.115-1.903-3.787-1.903-1.719 0-2.991.608-3.818 1.824-.826 1.21-1.24 3.094-1.24 5.652 0 2.453.424 4.307 1.27 5.563.853 1.256 2.115 1.884 3.788 1.884 1.725 0 3.001-.608 3.827-1.825zm-5.384-1.794c-.304-.774-.456-2.05-.456-3.828s.155-3.054.466-3.827c.31-.78.826-1.17 1.547-1.17.707 0 1.22.39 1.537 1.17.324.773.486 2.049.486 3.827 0 1.759-.159 3.028-.476 3.808-.318.78-.833 1.17-1.547 1.17-.727 0-1.246-.383-1.557-1.15z" fill="#32353D"/><path d="M51.768 49.823a1.774 1.774 0 0 0 1.255-1.6c.1-1.14-1.128-1.851-2.15-2.17l.37-1.666-1.028-.227-.366 1.65-.69-.153.367-1.65-1.028-.228-.366 1.65-2.069-.459-.236 1.064.77.17c.345.077.491.217.43.496l-1.015 4.57c-.085.382-.301.457-.507.411l-.785-.174-.24 1.086 1.995.443-.375 1.687 1.035.23.374-1.688.69.153-.375 1.688 1.005.223.375-1.688.22.05c2.113.468 3.047-.41 3.36-1.818a1.871 1.871 0 0 0-1.016-2.05zm-2.86-3.036l.734.163c.514.114 1.506.426 1.32 1.263a1.06 1.06 0 0 1-1.144.892l-1.357-.3.447-2.018zm-.035 5.534l.002-.007-1.137-.253.488-2.2 1.32.293c.309.068 1.445.428 1.263 1.25-.182.821-.835 1.161-1.936.917z" fill="#32353D"/></svg>