<svg width="55" height="56" fill="none" xmlns="http://www.w3.org/2000/svg"><path fill-rule="evenodd" clip-rule="evenodd" d="M4.527 0C2.027 0 0 2.008 0 4.486v21.789a1.69 1.69 0 0 1 2.037 1.649A1.69 1.69 0 0 1 0 29.571V51.36c0 2.477 2.027 4.485 4.527 4.485h45.946c2.5 0 4.527-2.008 4.527-4.485V29.57a1.69 1.69 0 0 1-2.037-1.648A1.69 1.69 0 0 1 55 26.275V4.485C55 2.009 52.973 0 50.473 0H4.527zm27.091 34.758c.833-1.216 1.25-3.09 1.25-5.622 0-2.446-.43-4.303-1.29-5.573-.852-1.269-2.115-1.903-3.787-1.903-1.719 0-2.991.608-3.818 1.824-.826 1.21-1.24 3.094-1.24 5.652 0 2.453.424 4.307 1.27 5.563.853 1.256 2.115 1.884 3.788 1.884 1.725 0 3.001-.608 3.827-1.825zm-5.384-1.794c-.304-.774-.456-2.05-.456-3.828s.155-3.054.466-3.827c.31-.78.826-1.17 1.547-1.17.707 0 1.22.39 1.537 1.17.324.773.486 2.049.486 3.827 0 1.759-.159 3.028-.476 3.808-.318.78-.833 1.17-1.547 1.17-.727 0-1.246-.383-1.557-1.15z" fill="#32353D"/></svg>