<svg width="13" height="15" fill="none" xmlns="http://www.w3.org/2000/svg"><path d="M8.174 15H2.413C1.083 15 0 13.949 0 12.656v-7.94c0-1.292 1.082-2.343 2.413-2.343h5.761c1.33 0 2.413 1.051 2.413 2.344v7.94c0 1.292-1.082 2.343-2.413 2.343zM2.413 3.545c-.665 0-1.206.526-1.206 1.172v7.94c0 .645.54 1.171 1.206 1.171h5.761c.665 0 1.207-.526 1.207-1.172v-7.94c0-.645-.542-1.171-1.207-1.171H2.413zM13 11.19V2.344C13 1.05 11.918 0 10.587 0H3.891a.595.595 0 0 0-.603.586c0 .324.27.586.603.586h6.696c.665 0 1.207.526 1.207 1.172v8.847c0 .324.27.586.603.586a.595.595 0 0 0 .603-.586z" fill="#ABB3C6"/></svg>