<svg width="137" height="137" fill="none" xmlns="http://www.w3.org/2000/svg"><path d="M95.74 39.482c2.373 3.35 4.247 6.727 5.602 10.096.065.153.124.311.179.465l.089.238c.078.195.15.396.217.592l.109.318c.071.19.132.38.194.571.066.196.127.387.188.578.104.333.203.662.307.996.019.069.037.127.051.191.049.17.094.345.138.52.019.07.032.133.051.202.044.165.088.34.127.51.02.09.039.181.07.271a14.088 14.088 0 0 1 .163.76c.001.011.006.017.007.027.038.16.066.32.093.48.014.063.021.122.035.186.032.154.06.314.082.469.014.085.028.17.037.25.027.15.049.304.071.459.022.154.05.314.067.474.022.144.038.294.055.444.015.106.03.213.039.325.001.01.006.016.007.027.001.021.007.037.007.058.017.14.028.284.044.433.034.31.057.62.079.93.011.134.016.273.022.413.017.315.03.637.037.953.005.128.005.262.005.397.003.23.001.455-.001.68l.001.011c-.006.13-.006.264-.012.393 0 .123-.006.252-.017.376a31.33 31.33 0 0 1-.152 2.017c-.012.113-.029.232-.045.35a26.241 26.241 0 0 1-.347 2.127 23.3 23.3 0 0 1-.343 1.51c-.098.385-.206.77-.314 1.155-.176.58-.363 1.162-.576 1.739-.034.092-.073.19-.107.293a12.89 12.89 0 0 1-.195.502l-.294.72a30 30 0 0 1-.726 1.588 32.76 32.76 0 0 1-1.472 2.696 36.576 36.576 0 0 1-1.036 1.623 41.945 41.945 0 0 1-2.796 3.67 13.3 13.3 0 0 1-.514.59c-.251.283-.508.572-.77.856-.315.339-.64.679-.964 1.019a64.828 64.828 0 0 1-9.928 8.39c-2.973 2.03-6.081 3.76-9.207 5.041-.079.03-.163.066-.237.1-.792.321-1.585.61-2.37.865-8.728 2.83-17.296 1.834-22.827-6.308-8.592-12.655-6.168-38.775 3.591-55.086 14.255-23.84 31.837-16.024 43.486.45z" fill="url(#paint0_radial)" filter="url(#filter0_d)"/><defs><filter id="filter0_d" x="0" y="0" width="136.41" height="137" filterUnits="userSpaceOnUse" color-interpolation-filters="sRGB"><feFlood flood-opacity="0" result="BackgroundImageFix"/><feColorMatrix in="SourceAlpha" values="0 0 0 0 0 0 0 0 0 0 0 0 0 0 0 0 0 0 127 0"/><feOffset dx="-2" dy="4"/><feGaussianBlur stdDeviation="10"/><feColorMatrix values="0 0 0 0 0 0 0 0 0 0 0 0 0 0 0 0 0 0 0.2 0"/><feBlend in2="BackgroundImageFix" result="effect1_dropShadow"/><feBlend in="SourceGraphic" in2="effect1_dropShadow" result="shape"/></filter><radialGradient id="paint0_radial" cx="0" cy="0" r="1" gradientUnits="userSpaceOnUse" gradientTransform="rotate(110.618 21.259 51.694) scale(53.956 59.8036)"><stop stop-color="#2F3342"/><stop offset=".958" stop-color="#1F2227"/></radialGradient></defs></svg>