<svg width="507" height="163" fill="none" xmlns="http://www.w3.org/2000/svg"><path d="M249.803 25.902l-3.399 2.608c-1.875-2.442-4.131-4.287-6.767-5.537-2.617-1.27-5.498-1.905-8.643-1.905-3.437 0-6.621.83-9.551 2.49-2.929 1.641-5.205 3.858-6.826 6.651-1.601 2.773-2.402 5.898-2.402 9.375 0 5.254 1.797 9.639 5.39 13.154 3.614 3.516 8.165 5.274 13.653 5.274 6.035 0 11.084-2.364 15.146-7.09l3.399 2.578c-2.149 2.734-4.834 4.853-8.057 6.357-3.203 1.485-6.787 2.227-10.752 2.227-7.539 0-13.486-2.51-17.842-7.53-3.652-4.238-5.478-9.355-5.478-15.35 0-6.31 2.207-11.612 6.621-15.91 4.434-4.316 9.98-6.474 16.641-6.474 4.023 0 7.656.801 10.898 2.403 3.242 1.582 5.898 3.808 7.969 6.68zm23.086 2.403c4.902 0 8.965 1.777 12.187 5.332 2.93 3.242 4.395 7.08 4.395 11.513 0 4.453-1.553 8.35-4.659 11.69-3.085 3.32-7.06 4.98-11.923 4.98-4.883 0-8.877-1.66-11.983-4.98-3.086-3.34-4.629-7.237-4.629-11.69 0-4.414 1.465-8.242 4.395-11.484 3.223-3.574 7.295-5.361 12.217-5.361zm0 4.013c-3.399 0-6.319 1.26-8.76 3.78-2.441 2.52-3.662 5.566-3.662 9.14 0 2.305.556 4.453 1.67 6.446 1.113 1.992 2.617 3.535 4.511 4.629 1.895 1.074 3.975 1.61 6.241 1.61 2.265 0 4.345-.536 6.24-1.61 1.894-1.094 3.398-2.637 4.512-4.63a13.002 13.002 0 0 0 1.67-6.445c0-3.574-1.231-6.62-3.692-9.14-2.441-2.52-5.351-3.78-8.73-3.78zM298.553 16c.937 0 1.738.332 2.402.996.664.664.996 1.465.996 2.402 0 .918-.332 1.71-.996 2.373a3.274 3.274 0 0 1-2.402.997c-.918 0-1.709-.332-2.373-.997-.664-.664-.996-1.455-.996-2.373 0-.937.332-1.738.996-2.402.664-.664 1.455-.996 2.373-.996zm-2.051 13.125h4.131V61h-4.131V29.125zm12.627 0h4.101v5.713c1.641-2.188 3.458-3.819 5.45-4.893 1.992-1.093 4.16-1.64 6.504-1.64 2.382 0 4.492.605 6.328 1.816 1.855 1.211 3.222 2.842 4.101 4.893.879 2.05 1.319 5.244 1.319 9.58V61h-4.073V45.795c0-3.672-.156-6.123-.468-7.354-.489-2.109-1.407-3.691-2.754-4.746-1.348-1.074-3.106-1.611-5.274-1.611-2.48 0-4.707.82-6.679 2.46-1.954 1.642-3.243 3.673-3.868 6.095-.39 1.582-.586 4.472-.586 8.671V61h-4.101V29.125z" fill="#C5D8B2"/><path d="M234.844 135.197c-4.412 0-8.371-.679-11.878-2.037-3.507-1.357-6.476-3.337-8.909-5.939-2.432-2.658-4.299-5.883-5.599-9.672-1.301-3.79-1.952-8.145-1.952-13.066 0-4.921.735-9.277 2.206-13.067 1.527-3.79 3.592-6.985 6.194-9.587 2.602-2.658 5.656-4.666 9.163-6.024 3.507-1.358 7.268-2.036 11.284-2.036 2.433 0 4.639.198 6.618.594 1.98.339 3.705.735 5.176 1.188 1.47.452 2.687.933 3.648 1.442.962.509 1.641.877 2.036 1.103l-3.139 8.739c-1.357-.849-3.309-1.64-5.854-2.376-2.489-.792-5.204-1.188-8.145-1.188-2.546 0-4.921.453-7.127 1.358a15.37 15.37 0 0 0-5.77 3.903c-1.583 1.753-2.828 3.96-3.733 6.618-.905 2.658-1.357 5.741-1.357 9.248 0 3.111.339 5.967 1.018 8.569.735 2.602 1.838 4.865 3.309 6.788 1.47 1.866 3.337 3.337 5.599 4.412 2.263 1.018 4.978 1.527 8.146 1.527 3.789 0 6.872-.368 9.248-1.103 2.375-.792 4.214-1.527 5.515-2.206l2.884 8.739c-.678.452-1.612.905-2.8 1.357-1.131.453-2.488.905-4.072 1.358-1.584.396-3.366.707-5.345.933-1.98.283-4.101.425-6.364.425zm66.519-23.503c0 3.507-.509 6.703-1.527 9.588-1.019 2.885-2.461 5.345-4.328 7.381-1.866 2.037-4.129 3.62-6.787 4.752-2.602 1.131-5.487 1.697-8.654 1.697-3.168 0-6.053-.566-8.654-1.697-2.602-1.132-4.837-2.715-6.703-4.752-1.867-2.036-3.337-4.496-4.412-7.381-1.018-2.885-1.527-6.081-1.527-9.588 0-3.506.509-6.674 1.527-9.502 1.075-2.885 2.545-5.345 4.412-7.382a19.432 19.432 0 0 1 6.787-4.666c2.602-1.132 5.459-1.697 8.57-1.697 3.111 0 5.967.566 8.569 1.697 2.659 1.075 4.921 2.63 6.788 4.666 1.866 2.037 3.309 4.497 4.327 7.382 1.074 2.828 1.612 5.996 1.612 9.502zm-10.521 0c0-4.412-.962-7.89-2.885-10.435-1.866-2.602-4.496-3.903-7.89-3.903-3.394 0-6.053 1.3-7.976 3.903-1.866 2.545-2.8 6.023-2.8 10.435 0 4.469.934 8.004 2.8 10.606 1.923 2.602 4.582 3.903 7.976 3.903s6.024-1.301 7.89-3.903c1.923-2.602 2.885-6.137 2.885-10.606zm57.496 20.872c-1.98.509-4.554 1.018-7.721 1.528-3.168.565-6.646.848-10.436.848-3.564 0-6.561-.509-8.994-1.527-2.375-1.018-4.298-2.432-5.769-4.242-1.414-1.811-2.432-3.96-3.055-6.449-.622-2.545-.933-5.317-.933-8.315v-24.86h10.266v23.248c0 4.752.679 8.146 2.037 10.182 1.414 2.036 3.846 3.054 7.296 3.054a47.08 47.08 0 0 0 3.903-.169c1.414-.114 2.461-.255 3.14-.425v-35.89h10.266v43.017zm42.508-20.617c0-4.582-1.047-8.145-3.139-10.69-2.037-2.546-5.346-3.819-9.927-3.819-.962 0-1.98.057-3.055.17a14.355 14.355 0 0 0-3.054.51v25.368c.905.622 2.093 1.216 3.563 1.782 1.528.509 3.14.763 4.836.763 3.734 0 6.449-1.272 8.146-3.818 1.753-2.545 2.63-5.967 2.63-10.266zm10.521-.17c0 3.394-.453 6.505-1.358 9.333-.848 2.828-2.093 5.261-3.733 7.297-1.64 2.036-3.705 3.62-6.194 4.751-2.432 1.131-5.204 1.697-8.315 1.697-2.092 0-4.016-.254-5.769-.763-1.754-.51-3.196-1.075-4.327-1.697v17.223h-10.266V90.992c2.092-.565 4.666-1.103 7.72-1.612 3.055-.509 6.279-.763 9.673-.763 3.507 0 6.646.537 9.418 1.612 2.771 1.074 5.119 2.63 7.042 4.666 1.979 1.98 3.478 4.412 4.496 7.297 1.075 2.828 1.613 6.024 1.613 9.587zm50.712-.085c0 3.507-.509 6.703-1.528 9.588-1.018 2.885-2.46 5.345-4.327 7.381-1.866 2.037-4.129 3.62-6.787 4.752-2.602 1.131-5.487 1.697-8.654 1.697-3.168 0-6.053-.566-8.655-1.697-2.602-1.132-4.836-2.715-6.702-4.752-1.867-2.036-3.338-4.496-4.412-7.381-1.018-2.885-1.528-6.081-1.528-9.588 0-3.506.51-6.674 1.528-9.502 1.074-2.885 2.545-5.345 4.412-7.382a19.432 19.432 0 0 1 6.787-4.666c2.602-1.132 5.459-1.697 8.57-1.697 3.111 0 5.967.566 8.569 1.697 2.658 1.075 4.921 2.63 6.788 4.666 1.866 2.037 3.308 4.497 4.327 7.382 1.074 2.828 1.612 5.996 1.612 9.502zm-10.521 0c0-4.412-.962-7.89-2.885-10.435-1.866-2.602-4.497-3.903-7.89-3.903-3.394 0-6.053 1.3-7.976 3.903-1.866 2.545-2.8 6.023-2.8 10.435 0 4.469.934 8.004 2.8 10.606 1.923 2.602 4.582 3.903 7.976 3.903 3.393 0 6.024-1.301 7.89-3.903 1.923-2.602 2.885-6.137 2.885-10.606zm21.097-20.702c1.98-.565 4.553-1.103 7.721-1.612 3.168-.509 6.675-.763 10.521-.763 3.62 0 6.646.509 9.078 1.527 2.432.961 4.356 2.347 5.77 4.157 1.47 1.754 2.488 3.903 3.054 6.448.622 2.489.933 5.233.933 8.23v24.945h-10.266v-23.333c0-2.375-.17-4.383-.509-6.024-.283-1.696-.792-3.054-1.527-4.072-.679-1.075-1.64-1.838-2.885-2.29-1.188-.51-2.658-.764-4.412-.764a34.13 34.13 0 0 0-4.072.254 77.51 77.51 0 0 0-3.14.424v35.805h-10.266V90.992z" fill="#fff"/><path d="M159.6 102.7c-9.3 34.6-40.8 60-78.3 60C36.5 162.7.2 126.4.2 81.6S36.5.5 81.3.5c36.5 0 67.4 24.1 77.6 57.3h-41.3C109.9 46 96.5 38.2 81.4 38.2c-23.9 0-43.3 19.4-43.3 43.3s19.4 43.3 43.3 43.3c16.3 0 30.4-9 37.8-22.2h40.4v.1z" fill="url(#paint0_linear)"/><path d="M139.9 70.2H98.6C94.8 62.6 87 57.5 77.9 57.7c-11.5.3-21.1 9.5-21.8 21-.8 13 9.5 23.9 22.4 23.9 8.8 0 16.4-5.1 20.1-12.5h61.2c0-10.9-8.9-19.9-19.9-19.9z" fill="url(#paint1_linear)"/><defs><linearGradient id="paint0_linear" x1=".165" y1="81.54" x2="159.605" y2="81.54" gradientUnits="userSpaceOnUse"><stop stop-color="#6FB12F"/><stop offset="1" stop-color="#558C0E"/></linearGradient><linearGradient id="paint1_linear" x1="56.04" y1="80.205" x2="159.818" y2="80.205" gradientUnits="userSpaceOnUse"><stop stop-color="#B6FF57"/><stop offset="1" stop-color="#558C0E"/></linearGradient></defs></svg>