<svg width="22" height="21" fill="none" xmlns="http://www.w3.org/2000/svg"><path d="M1.467 6.722V4.4L11.122 0l9.411 4.4v2.322H1.467zM0 20.045a.61.61 0 0 1 .611-.611H21.39a.611.611 0 0 1 0 1.222H.61a.611.611 0 0 1-.61-.611zm1.222-1.956a.61.61 0 0 1 .611-.611h18.334a.611.611 0 0 1 0 1.222H1.833a.611.611 0 0 1-.61-.611zM6.11 8.434v7.577H3.423V8.434H6.11z" fill="#D4DBEB"/><path d="M6.355 7.456a.489.489 0 0 1 0 .978H3.178a.489.489 0 0 1 0-.978h3.177zm0 8.556a.489.489 0 0 1 0 .977H3.178a.489.489 0 0 1 0-.977h3.177zm6.112-7.578v7.577h-2.69V8.434h2.69z" fill="#D4DBEB"/><path d="M12.711 7.456a.489.489 0 0 1 0 .978H9.533a.489.489 0 0 1 0-.978h3.178zm0 8.556a.489.489 0 0 1 0 .977H9.533a.489.489 0 0 1 0-.977h3.178zm6.111-7.578v7.577h-2.689V8.434h2.69z" fill="#D4DBEB"/><path d="M19.067 7.456a.489.489 0 0 1 0 .978h-3.178a.489.489 0 0 1 0-.978h3.178zm0 8.556a.489.489 0 0 1 0 .977h-3.178a.489.489 0 0 1 0-.977h3.178z" fill="#D4DBEB"/></svg>