<svg width="15" height="15" fill="none" xmlns="http://www.w3.org/2000/svg"><path d="M14.863 12.44c-.999-2.05-2.673-4.954-4.15-7.517-.772-1.342-1.502-2.609-2.03-3.572C8.434.897 7.992.625 7.5.625c-.492 0-.935.272-1.184.726-.528.964-1.258 2.232-2.032 3.574C2.808 7.488 1.135 10.392.137 12.44a1.346 1.346 0 0 0 1.203 1.935h12.32a1.346 1.346 0 0 0 1.203-1.935zm-7.363.685a.626.626 0 1 1 .002-1.251.626.626 0 0 1-.002 1.251zm.625-2.187c0 .173-.14.312-.313.312h-.625a.312.312 0 0 1-.312-.312V4.063c0-.173.14-.313.312-.313h.625c.173 0 .313.14.313.313v6.875z" fill="#6FB12F"/></svg>