<svg width="1920" height="835" fill="none" xmlns="http://www.w3.org/2000/svg"><path fill="#23252D" d="M0 41h1920v794H0z"/><mask id="mask0" maskUnits="userSpaceOnUse" x="-100" y="76" width="1191" height="723"><path transform="scale(1 -1) rotate(88.748 945.762 150.655)" fill="#C4C4C4" d="M0 0h695.648v1176H0z"/></mask><g opacity=".2" stroke="#5D6886" stroke-miterlimit="10" mask="url(#mask0)"><path d="M31.486 273.371S371.838-47.582 651.164 350.88c200.422 285.772 271.679 462.714 474.866 459.1 203.19-3.614 309.53-39.474 354.85 53.661"/><path d="M1032.35 1112.79s-9-362.386-330.527-375.966c-217.101-9.036-264.195-422.999-421.481-475.451-124.755-41.653-173.054 224.909-173.054 224.909m876.225 752.978s-87.532-235.55-346.835-278.03c-259.302-42.485-275.254-355.438-407.066-331.185C97.799 654.298 43.218 895.48 43.218 895.48"/></g><path fill-rule="evenodd" clip-rule="evenodd" d="M1648.26 29.539l.02.008a36.65 36.65 0 0 1 11.15 11.784 36.668 36.668 0 0 1 4.97 15.457c.49 5.46-.26 10.959-2.19 16.09a36.617 36.617 0 0 1-8.92 13.566 36.746 36.746 0 0 1-13.91 8.377 36.678 36.678 0 0 1-31.42-4.044 36.624 36.624 0 0 1-11.33-11.628l-25.03 15.322c0 .003.01.006.01.01a65.966 65.966 0 0 0 26.83 24.596 66.015 66.015 0 0 0 75.18-11.473 66.014 66.014 0 0 0 16.07-24.424 66.18 66.18 0 0 0 3.95-28.971 66.19 66.19 0 0 0-5.55-21.26 65.965 65.965 0 0 0-23.52-27.804l-16.31 24.394z" fill="#6FB12F"/></svg>