<svg width="1920" height="1475" fill="none" xmlns="http://www.w3.org/2000/svg"><mask id="mask0" maskUnits="userSpaceOnUse" x="0" y="0" width="1920" height="1475"><path fill="#C4C4C4" d="M0 0h1920v1475H0z"/></mask><g mask="url(#mask0)"><mask id="mask1" maskUnits="userSpaceOnUse" x="-311" y="-375" width="531" height="1112"><path fill="#C4C4C4" d="M-311-375h531V737h-531z"/></mask><g opacity=".2" stroke="#5D6886" stroke-miterlimit="10" mask="url(#mask1)"><path d="M72.081 623.01S322.687 307.887 23.264 35.595c-214.74-195.373-348.582-266.391-342.436-458.401 6.146-192.01 35.285-291.797-35.034-336.565"/><path d="M-551.819-340.499s276.399 15.99 281.401 320.23C-267.142 185.155 47.982 238.226 85.387 388 115.093 506.797-89.134 546.951-89.134 546.951m-560.014-843.895s178.294 87.615 206.392 333.625c28.098 246.01 266.657 267.554 245.951 391.662-20.707 124.109-205.671 170.725-205.671 170.725"/></g><path d="M2027 291C1064.06 720.265 191.107 606.82-125 496.44v655.08c352.85 478.44 822.025 265.8 1245.22 111.31 338.56-123.6 745.59-14.59 906.78 55.37V291z" fill="url(#paint0_linear)"/><mask id="mask2" maskUnits="userSpaceOnUse" x="1292" y="26" width="696" height="1176"><path transform="matrix(-1 0 0 1 1987.65 26)" fill="#C4C4C4" d="M0 0h695.648v1176H0z"/></mask><g opacity=".2" stroke="#5D6886" stroke-miterlimit="10" mask="url(#mask2)"><path d="M1485.78 1081.45s-328.31-333.261 63.96-621.225c281.32-206.617 456.67-281.723 448.61-484.784-8.05-203.061-46.22-308.59 45.9-355.935"/><path d="M2303.14 62.487s-362.1 16.91-368.66 338.66c-4.29 217.247-417.12 273.373-466.13 431.767-38.91 125.634 228.64 168.096 228.64 168.096m733.66-892.461s-233.58 92.657-270.39 352.826c-36.81 260.168-349.34 282.952-322.22 414.204 27.13 131.251 269.45 180.551 269.45 180.551"/></g><circle cx="1535.5" cy="475.5" r="23.5" fill="#6FB12F"/><circle cx="370" cy="1166" r="13" fill="#6FB12F"/><circle cx="307.5" cy="892.5" r="3.5" fill="#2B2D33"/><circle cx="442.5" cy="892.5" r="3.5" fill="#2B2D33"/><circle cx="575.5" cy="892.5" r="3.5" fill="#2B2D33"/><circle cx="710.5" cy="892.5" r="3.5" fill="#2B2D33"/><circle cx="307.5" cy="1025.5" r="3.5" fill="#2B2D33"/><circle cx="442.5" cy="1025.5" r="3.5" fill="#2B2D33"/><circle cx="575.5" cy="1025.5" r="3.5" fill="#2B2D33"/><circle cx="710.5" cy="1025.5" r="3.5" fill="#2B2D33"/><circle cx="307.5" cy="1161.5" r="3.5" fill="#2B2D33"/><circle cx="442.5" cy="1161.5" r="3.5" fill="#2B2D33"/><circle cx="575.5" cy="1161.5" r="3.5" fill="#2B2D33"/><circle cx="710.5" cy="1161.5" r="3.5" fill="#2B2D33"/><circle cx="307.5" cy="1294.5" r="3.5" fill="#2B2D33"/><circle cx="442.5" cy="1294.5" r="3.5" fill="#2B2D33"/><circle cx="575.5" cy="1294.5" r="3.5" fill="#2B2D33"/><circle cx="710.5" cy="1294.5" r="3.5" fill="#2B2D33"/></g><defs><linearGradient id="paint0_linear" x1="1959.5" y1="1088" x2="50.586" y2="244.063" gradientUnits="userSpaceOnUse"><stop offset=".017" stop-color="#1D1F24"/><stop offset=".354" stop-color="#252831"/><stop offset=".683" stop-color="#23262E"/><stop offset="1" stop-color="#1D1F24"/></linearGradient></defs></svg>