<svg width="1335" height="908" fill="none" xmlns="http://www.w3.org/2000/svg"><mask id="mask0" maskUnits="userSpaceOnUse" x="0" y="0" width="1335" height="908"><path fill="#C4C4C4" d="M0 0h1335v908H0z"/></mask><g mask="url(#mask0)"><path d="M403 535.5C107.918 402.132 90.351 92.683 98.773-57H1344v782.469C859.495 1076.29 656.159 741.138 580.5 654 508 570.5 438.5 551.545 403 535.5z" fill="url(#paint0_radial)"/><g opacity=".2" stroke="#5D6886" stroke-miterlimit="10"><path d="M1618.43 461.809s-212.8-42.518-360.18 179.396c-165.26 248.7-413.512 202.498-478.127 49.646C715.507 538 904.904 270.703 692.648 147.509c-212.257-123.194-35.485-494.505-35.485-494.505"/><path d="M1505.62 258.949s-209.54 117.325-334.25 306.589c-124.72 189.265-241.783 122.798-264.357 68.545-46.931-112.551 127.867-346.891 6.967-476.425-90.984-97.277-299.23-128.35-203.309-383.639"/><path d="M1373.12 277.518s-128.7 193.877-200.2 77.596c-81.98-133.405-7.62-215.57-218.907-259.837C878.646 79.587 666.97-88.96 842.63-208.891m160.56 683.507c-37.513 43.391-48.769 95.125-25.141 115.552 23.631 20.427 73.191 1.811 110.701-41.58 37.52-43.391 48.77-95.126 25.14-115.552-23.62-20.427-73.19-1.811-110.7 41.58z"/></g><path d="M701.801 28.003c0 1.6-1.3 2.9-2.9 2.9-1.6 0-2.9-1.3-2.9-2.9 0-1.6 1.3-2.9 2.9-2.9 1.6 0 2.9 1.3 2.9 2.9zm127.5 0c0 1.6-1.3 2.9-2.9 2.9-1.6 0-2.9-1.3-2.9-2.9 0-1.6 1.3-2.9 2.9-2.9 1.6 0 2.9 1.3 2.9 2.9zm127.6 0c0 1.6-1.3 2.9-2.9 2.9-1.6 0-2.9-1.3-2.9-2.9 0-1.6 1.3-2.9 2.9-2.9 1.6 0 2.9 1.3 2.9 2.9zm127.499 0c0 1.6-1.3 2.9-2.9 2.9-1.6 0-2.9-1.3-2.9-2.9 0-1.6 1.3-2.9 2.9-2.9 1.6 0 2.9 1.3 2.9 2.9zm127.6 0c0 1.6-1.3 2.9-2.9 2.9-1.6 0-2.9-1.3-2.9-2.9 0-1.6 1.3-2.9 2.9-2.9 1.6 0 2.9 1.3 2.9 2.9zm127.6 0c0 1.6-1.3 2.9-2.9 2.9-1.6 0-2.9-1.3-2.9-2.9 0-1.6 1.3-2.9 2.9-2.9 1.6 0 2.9 1.3 2.9 2.9zM701.801 155.604c0 1.6-1.3 2.9-2.9 2.9-1.6 0-2.9-1.3-2.9-2.9 0-1.6 1.3-2.9 2.9-2.9 1.6 0 2.9 1.3 2.9 2.9zm127.5 0c0 1.6-1.3 2.9-2.9 2.9-1.6 0-2.9-1.3-2.9-2.9 0-1.6 1.3-2.9 2.9-2.9 1.6 0 2.9 1.3 2.9 2.9zm127.6 0c0 1.6-1.3 2.9-2.9 2.9-1.6 0-2.9-1.3-2.9-2.9 0-1.6 1.3-2.9 2.9-2.9 1.6 0 2.9 1.3 2.9 2.9zm127.499 0c0 1.6-1.3 2.9-2.9 2.9-1.6 0-2.9-1.3-2.9-2.9 0-1.6 1.3-2.9 2.9-2.9 1.6 0 2.9 1.3 2.9 2.9zm124.7 2.9a2.9 2.9 0 1 0-.002-5.802 2.9 2.9 0 0 0 .002 5.802zm130.5-2.9c0 1.6-1.3 2.9-2.9 2.9-1.6 0-2.9-1.3-2.9-2.9 0-1.6 1.3-2.9 2.9-2.9 1.6 0 2.9 1.3 2.9 2.9zm-637.799 127.6c0 1.6-1.3 2.9-2.9 2.9-1.6 0-2.9-1.3-2.9-2.9 0-1.6 1.3-2.9 2.9-2.9 1.6 0 2.9 1.3 2.9 2.9zm127.5 0c0 1.6-1.3 2.9-2.9 2.9-1.6 0-2.9-1.3-2.9-2.9 0-1.6 1.3-2.9 2.9-2.9 1.6 0 2.9 1.3 2.9 2.9zm127.6 0c0 1.6-1.3 2.9-2.9 2.9-1.6 0-2.9-1.3-2.9-2.9 0-1.6 1.3-2.9 2.9-2.9 1.6 0 2.9 1.3 2.9 2.9zm127.499 0c0 1.6-1.3 2.9-2.9 2.9-1.6 0-2.9-1.3-2.9-2.9 0-1.6 1.3-2.9 2.9-2.9 1.6 0 2.9 1.3 2.9 2.9zm127.6 0c0 1.6-1.3 2.9-2.9 2.9-1.6 0-2.9-1.3-2.9-2.9 0-1.6 1.3-2.9 2.9-2.9 1.6 0 2.9 1.3 2.9 2.9zm127.6 0c0 1.6-1.3 2.9-2.9 2.9-1.6 0-2.9-1.3-2.9-2.9 0-1.6 1.3-2.9 2.9-2.9 1.6 0 2.9 1.3 2.9 2.9zm-637.799 127.5c0 1.6-1.3 2.9-2.9 2.9-1.6 0-2.9-1.3-2.9-2.9 0-1.6 1.3-2.9 2.9-2.9 1.6 0 2.9 1.3 2.9 2.9zm127.5 0c0 1.6-1.3 2.9-2.9 2.9-1.6 0-2.9-1.3-2.9-2.9 0-1.6 1.3-2.9 2.9-2.9 1.6 0 2.9 1.3 2.9 2.9zm127.6 0c0 1.6-1.3 2.9-2.9 2.9-1.6 0-2.9-1.3-2.9-2.9 0-1.6 1.3-2.9 2.9-2.9 1.6 0 2.9 1.3 2.9 2.9zm127.499 0c0 1.6-1.3 2.9-2.9 2.9-1.6 0-2.9-1.3-2.9-2.9 0-1.6 1.3-2.9 2.9-2.9 1.6 0 2.9 1.3 2.9 2.9zm127.6 0c0 1.6-1.3 2.9-2.9 2.9-1.6 0-2.9-1.3-2.9-2.9 0-1.6 1.3-2.9 2.9-2.9 1.6 0 2.9 1.3 2.9 2.9zm127.6 0c0 1.6-1.3 2.9-2.9 2.9-1.6 0-2.9-1.3-2.9-2.9 0-1.6 1.3-2.9 2.9-2.9 1.6 0 2.9 1.3 2.9 2.9zm-637.799 127.6c0 1.6-1.3 2.9-2.9 2.9-1.6 0-2.9-1.3-2.9-2.9 0-1.6 1.3-2.9 2.9-2.9 1.6 0 2.9 1.3 2.9 2.9zm127.5 0c0 1.6-1.3 2.9-2.9 2.9-1.6 0-2.9-1.3-2.9-2.9 0-1.6 1.3-2.9 2.9-2.9 1.6 0 2.9 1.3 2.9 2.9zm127.6 0c0 1.6-1.3 2.9-2.9 2.9-1.6 0-2.9-1.3-2.9-2.9 0-1.6 1.3-2.9 2.9-2.9 1.6 0 2.9 1.3 2.9 2.9zm127.499 0c0 1.6-1.3 2.9-2.9 2.9-1.6 0-2.9-1.3-2.9-2.9 0-1.6 1.3-2.9 2.9-2.9 1.6 0 2.9 1.3 2.9 2.9zm127.6 0c0 1.6-1.3 2.9-2.9 2.9-1.6 0-2.9-1.3-2.9-2.9 0-1.6 1.3-2.9 2.9-2.9 1.6 0 2.9 1.3 2.9 2.9zm127.6 0c0 1.6-1.3 2.9-2.9 2.9-1.6 0-2.9-1.3-2.9-2.9 0-1.6 1.3-2.9 2.9-2.9 1.6 0 2.9 1.3 2.9 2.9z" opacity=".05" fill="#fff"/><path fill-rule="evenodd" clip-rule="evenodd" d="M1127.72 356.551c0 .004-.01.009-.01.013a36.689 36.689 0 0 1-12.33 10.539 36.715 36.715 0 0 1-15.69 4.184 36.637 36.637 0 0 1-15.96-3.005 36.656 36.656 0 0 1-20.76-23.924 36.737 36.737 0 0 1-.72-16.222c.98-5.394 3.15-10.5 6.36-14.943a36.615 36.615 0 0 1 12.19-10.731l-14.03-25.773-.02.006a66.046 66.046 0 0 0-21.93 19.315 65.86 65.86 0 0 0-3.99 6.236 65.967 65.967 0 0 0-7.46 20.669 66.113 66.113 0 0 0 1.3 29.21 66.086 66.086 0 0 0 13.8 25.782 65.944 65.944 0 0 0 23.57 17.293 65.992 65.992 0 0 0 79.21-21.121l-23.53-17.528z" fill="#6FB12F"/><g clip-path="url(#clip0)"><path d="M835.797 164.737c-117.716 0-213.158 95.198-213.158 212.64 0 117.441 95.43 212.639 213.158 212.639 117.728 0 213.153-95.204 213.153-212.639 0-117.436-95.431-212.64-213.153-212.64zm0 383.84c-94.783 0-171.624-76.642-171.624-171.206s76.829-171.212 171.624-171.212 171.633 76.642 171.633 171.212-76.844 171.206-171.633 171.206z" fill="#13141B"/><path d="M970.941 512.252c72.909-72.73 72.909-190.647 0-263.377-72.906-72.729-191.112-72.729-264.018 0-72.907 72.73-72.907 190.647 0 263.377 72.906 72.729 191.112 72.729 264.018 0z" fill="#191A20"/><path d="M821.101 153.005c-117.722 0-213.158 95.198-213.158 212.639 0 117.442 95.43 212.64 213.158 212.64 117.727 0 213.159-95.198 213.159-212.64 0-117.441-95.437-212.639-213.159-212.639zm0 383.846c-94.789 0-171.647-76.654-171.647-171.212 0-94.559 76.829-171.213 171.629-171.213 94.801 0 171.624 76.643 171.624 171.213 0 94.569-76.818 171.212-171.606 171.212z" fill="#252831"/><path d="M899.779 390.02c-5.857-6.892-15.006-11.502-27.445-13.83v-1.216c10.013-1.775 17.686-6.087 23.02-12.937 5.334-6.849 8.001-15.434 8.001-25.753 0-15.305-5.434-26.506-16.302-33.601-6.608-4.311-15.718-7.309-27.329-8.996v-32.846h-22.91v31.25c-.884 0-1.733-.029-2.652-.029h-8.624v-31.239h-22.887v31.222h-47.224v24.203h26.145v128.35h-26.145v24.203h47.224v31.746h22.887v-31.769h11.276v31.746h22.91v-32.605c13.151-1.706 23.882-5.912 32.193-12.62 11.107-8.99 16.662-21.421 16.666-37.295-.012-11.768-2.946-21.095-8.804-27.984zm-68.673-73.801h4.512c13.094 0 22.644 1.854 28.652 5.561 6.008 3.707 9.017 9.712 9.029 18.014 0 9.185-2.786 15.693-8.359 19.523-5.572 3.831-14.418 5.751-26.538 5.763h-27.866v-48.861h20.57zm37.653 121.308c-6.162 4.633-15.31 6.952-27.445 6.956h-30.778v-55.967h29.322c12.843 0 22.417 2.215 28.722 6.645 6.304 4.429 9.454 11.242 9.45 20.44 0 9.988-3.09 17.297-9.271 21.926z" fill="#13141B"/><path d="M894.684 383.416c-5.857-6.892-15.006-11.502-27.445-13.83v-1.239c10.013-1.775 17.686-6.087 23.02-12.937s7.999-15.432 7.995-25.747c0-15.313-5.432-26.514-16.296-33.602-6.608-4.299-15.726-7.287-27.352-8.966v-32.847h-22.887v31.251h-11.276v-31.251H797.55v31.228h-47.218v24.174h26.145v128.344h-26.145v24.174h47.218v31.752h22.893v-31.752h11.276v31.752h22.887v-32.605c13.159-1.702 23.892-5.909 32.199-12.62 11.11-8.982 16.663-21.414 16.66-37.295 0-11.764-2.927-21.091-8.781-27.984zm-68.672-73.795h4.505c13.094 0 22.647 1.853 28.658 5.561 6.012 3.707 9.021 9.712 9.029 18.013 0 9.19-2.786 15.698-8.359 19.524-5.572 3.826-14.418 5.747-26.538 5.763h-27.883v-48.861h20.588zm37.646 121.302c-6.162 4.633-15.308 6.952-27.439 6.956h-30.795v-55.972h29.322c12.847 0 22.421 2.216 28.721 6.65 6.301 4.433 9.451 11.242 9.451 20.428.008 10-3.079 17.313-9.26 21.938z" fill="url(#paint1_linear)"/><path d="M859.707 260.823l-5.101-6.604v10.747l5.101-4.143zm-34.146 0l-5.095-6.604v10.747l5.095-4.143zm-75.229 48.797l5.095 6.598 6.805-6.598h-11.9zm0 152.548l5.095 6.61 9.086-6.61h-14.181zm47.218 31.752l5.101 6.598 5.661-6.598H797.55zm34.169 0l5.095 6.598 5.251-6.598h-10.346z" fill="#13141B"/></g><circle cx="592.949" cy="177.005" r="18" fill="#6FB12F"/></g><defs><radialGradient id="paint0_radial" cx="0" cy="0" r="1" gradientUnits="userSpaceOnUse" gradientTransform="rotate(-172.597 510.047 231.606) scale(477.86 468.993)"><stop stop-color="#2F3342"/><stop offset=".753" stop-color="#1D1F24"/></radialGradient><linearGradient id="paint1_linear" x1="826.898" y1="254.248" x2="892.449" y2="450.005" gradientUnits="userSpaceOnUse"><stop stop-color="#252831"/><stop offset=".46" stop-color="#2D303A"/><stop offset="1" stop-color="#252831"/></linearGradient><clipPath id="clip0"><path fill="#fff" d="M607.949 153.005h441v437h-441z"/></clipPath></defs></svg>